<svg width="198" height="26" viewBox="0 0 198 26" fill="none" xmlns="http://www.w3.org/2000/svg">
    <path d="M63.0793 23.1997C61.3113 23.1997 59.2564 22.9223 57.5362 22.5061C56.9148 22.3674 56.7715 22.1826 56.7715 21.7664V3.27069C56.7715 2.99325 57.0105 2.71582 57.345 2.71582H59.8776C60.1644 2.71582 60.4511 2.94702 60.4511 3.27069V7.98708C61.4546 7.84837 62.4103 7.80213 63.0793 7.80213C67.5235 7.80213 69.6262 10.3453 69.6262 14.4606V16.4951C69.6262 20.7029 67.4758 23.1997 63.0793 23.1997ZM65.9944 14.5068C65.9944 12.3336 65.4209 10.7152 63.0315 10.7152C62.3625 10.7152 61.1679 10.8077 60.4033 10.9001V20.1943C60.9289 20.2867 62.028 20.3792 63.0315 20.3792C65.3731 20.3792 65.9944 18.7608 65.9944 16.5875V14.5068Z" fill="#18181F"/>
    <path d="M82.8158 22.5064C81.0954 22.9226 79.0405 23.2001 77.2724 23.2001C72.8283 23.2001 70.7256 20.6568 70.7256 16.5416V14.5071C70.7256 10.3456 72.876 7.84863 77.2724 7.84863C79.0405 7.84863 81.0954 8.12607 82.8158 8.54223C83.437 8.68094 83.5803 8.8659 83.5803 9.28206V21.859C83.5803 22.1827 83.4848 22.3678 82.8158 22.5064ZM79.9485 10.8542C79.4228 10.7617 78.276 10.6692 77.3203 10.6692C74.9787 10.6692 74.3575 12.2876 74.3575 14.4609V16.4954C74.3575 18.6686 74.9309 20.2869 77.3203 20.2869C78.3238 20.2869 79.4228 20.1945 79.9485 20.102V10.8542Z" fill="#18181F"/>
    <path d="M95.0474 22.8756C94.4261 23.0143 93.1837 23.1993 91.5111 23.1993C87.927 23.1993 85.2511 21.0722 85.2511 16.7257V14.2289C85.2511 9.88237 87.927 7.75537 91.5111 7.75537C93.1837 7.75537 94.4261 7.94033 95.0474 8.12528C95.5252 8.21777 95.6208 8.40273 95.6208 8.81887V10.5297C95.6208 10.8072 95.3819 10.9459 95.1429 10.9459C95.0951 10.9459 95.0951 10.9459 95.0474 10.9459C93.9482 10.8072 93.2792 10.7609 91.5111 10.7609C90.2209 10.7609 88.8829 11.5007 88.8829 14.2289V16.7257C88.8829 19.5001 90.2209 20.1937 91.5111 20.1937C93.2792 20.1937 93.9482 20.1475 95.0474 20.0087C95.0951 20.0087 95.0951 20.0087 95.1429 20.0087C95.4296 20.0087 95.6208 20.1475 95.6208 20.425V22.182C95.6208 22.5981 95.4774 22.7832 95.0474 22.8756Z" fill="#18181F"/>
    <path d="M109.338 23.015H105.993C105.706 23.015 105.371 22.7375 105.18 22.5064L100.879 16.449V22.5064C100.879 22.7837 100.64 23.0612 100.306 23.0612H97.7734C97.4865 23.0612 97.2477 22.7837 97.2477 22.5064V3.31708C97.2477 3.03964 97.4865 2.76221 97.7734 2.76221H100.306C100.593 2.76221 100.879 2.9934 100.879 3.31708V14.4145L105.563 8.35715C105.754 8.12595 106.04 8.03348 106.184 8.03348H109.242C109.529 8.03348 109.672 8.12595 109.672 8.31091C109.672 8.40338 109.624 8.44964 109.577 8.58835L104.033 15.1543L109.624 22.5064C109.672 22.5988 109.72 22.6451 109.72 22.7375C109.72 22.8299 109.577 23.015 109.338 23.015Z" fill="#18181F"/>
    <path d="M123.1 16.7265H114.164V16.8191C114.164 18.345 114.833 20.1945 117.461 20.1945C119.468 20.1945 121.38 20.0558 122.526 19.9171C122.574 19.9171 122.574 19.9171 122.622 19.9171C122.909 19.9171 123.1 20.0558 123.1 20.3333V22.0903C123.1 22.5064 123.004 22.6915 122.526 22.7839C120.758 23.1076 119.659 23.2463 117.174 23.2463C114.403 23.2463 110.532 21.8128 110.532 16.5878V14.5995C110.532 10.438 112.921 7.84863 117.127 7.84863C121.38 7.84863 123.673 10.623 123.673 14.5995V16.0792C123.625 16.4954 123.482 16.7265 123.1 16.7265ZM119.994 14.1372C119.994 12.0564 118.799 10.8542 117.127 10.8542C115.406 10.8542 114.164 12.0102 114.164 14.1372V14.2296H119.994V14.1372Z" fill="#18181F"/>
    <path d="M137.388 23.015H134.807C134.521 23.015 134.282 22.7377 134.282 22.4602V13.2586C134.282 11.9639 133.995 10.7617 132.418 10.7617H130.698C129.121 10.7617 128.834 11.9639 128.834 13.2586V22.4602C128.834 22.7377 128.595 23.015 128.308 23.015H125.728C125.441 23.015 125.202 22.7377 125.202 22.4602V13.2586C125.202 10.0219 127.114 7.84863 130.698 7.84863H132.418C136.002 7.84863 137.914 10.0681 137.914 13.2586V22.4602C137.914 22.7377 137.722 23.015 137.388 23.015Z" fill="#18181F"/>
    <path d="M151.533 22.5064C149.812 22.9225 147.758 23.1999 145.989 23.1999C141.545 23.1999 139.443 20.6568 139.443 16.5414V14.5069C139.443 10.3454 141.593 7.84852 145.989 7.84852C146.659 7.84852 147.614 7.89475 148.618 8.03348V3.31708C148.618 3.03964 148.857 2.76221 149.192 2.76221H151.724C152.011 2.76221 152.297 2.9934 152.297 3.31708V21.8128C152.297 22.1827 152.153 22.3676 151.533 22.5064ZM148.666 10.8541C147.901 10.7616 146.706 10.6691 146.038 10.6691C143.696 10.6691 143.075 12.2875 143.075 14.4607V16.4952C143.075 18.6685 143.648 20.2869 146.038 20.2869C147.041 20.2869 148.14 20.1944 148.666 20.1018V10.8541Z" fill="#18181F"/>
    <path d="M157.746 23.015H155.165C154.879 23.015 154.592 22.7375 154.592 22.46V3.31708C154.592 3.03964 154.831 2.76221 155.165 2.76221H157.746C158.032 2.76221 158.271 2.9934 158.271 3.31708V22.46C158.224 22.7375 158.032 23.015 157.746 23.015Z" fill="#1D77BD"/>
    <path d="M172.702 16.7265H163.765V16.8191C163.765 18.345 164.434 20.1945 167.062 20.1945C169.07 20.1945 170.98 20.0558 172.128 19.9171C172.176 19.9171 172.176 19.9171 172.223 19.9171C172.51 19.9171 172.702 20.0558 172.702 20.3333V22.0903C172.702 22.5064 172.605 22.6915 172.128 22.7839C170.359 23.1076 169.26 23.2463 166.775 23.2463C164.003 23.2463 160.134 21.8128 160.134 16.5878V14.5995C160.134 10.438 162.522 7.84863 166.727 7.84863C170.98 7.84863 173.275 10.623 173.275 14.5995V16.0792C173.227 16.4954 173.083 16.7265 172.702 16.7265ZM169.596 14.1372C169.596 12.0564 168.4 10.8542 166.727 10.8542C165.007 10.8542 163.765 12.0102 163.765 14.1372V14.2296H169.596V14.1372Z" fill="#1D77BD"/>
    <path d="M180.013 23.1994C178.962 23.1994 176.621 23.0606 175.091 22.6445C174.756 22.552 174.565 22.3671 174.565 22.0434V20.4251C174.565 20.1938 174.756 20.0089 175.043 20.0089C175.091 20.0089 175.091 20.0089 175.138 20.0089C176.477 20.1476 178.914 20.2863 179.774 20.2863C181.494 20.2863 181.733 19.7315 181.733 18.9916C181.733 18.483 181.399 18.1593 180.539 17.6507L176.763 15.4312C175.425 14.6451 174.47 13.3042 174.47 11.7783C174.47 9.09646 176.19 7.80176 179.679 7.80176C181.925 7.80176 183.167 8.03296 184.553 8.35663C184.887 8.4491 185.031 8.63406 185.031 8.95773V10.4836C185.031 10.8073 184.839 10.9923 184.553 10.9923C184.505 10.9923 184.505 10.9923 184.458 10.9923C183.693 10.8998 181.494 10.6686 179.917 10.6686C178.58 10.6686 178.006 10.946 178.006 11.7783C178.006 12.1945 178.436 12.4719 179.106 12.8881L182.688 15.0151C184.983 16.3559 185.318 17.697 185.318 19.0378C185.413 21.396 183.598 23.1994 180.013 23.1994Z" fill="#1D77BD"/>
    <path d="M192.056 23.1994C191.004 23.1994 188.662 23.0606 187.133 22.6445C186.799 22.552 186.608 22.3671 186.608 22.0434V20.4251C186.608 20.1938 186.799 20.0089 187.086 20.0089C187.133 20.0089 187.133 20.0089 187.181 20.0089C188.519 20.1476 190.957 20.2863 191.817 20.2863C193.537 20.2863 193.776 19.7315 193.776 18.9916C193.776 18.483 193.44 18.1593 192.58 17.6507L188.806 15.4312C187.468 14.6451 186.513 13.3042 186.513 11.7783C186.513 9.09646 188.233 7.80176 191.72 7.80176C193.966 7.80176 195.21 8.03296 196.595 8.35663C196.93 8.4491 197.072 8.63406 197.072 8.95773V10.4836C197.072 10.8073 196.882 10.9923 196.595 10.9923C196.548 10.9923 196.548 10.9923 196.499 10.9923C195.735 10.8998 193.537 10.6686 191.96 10.6686C190.621 10.6686 190.048 10.946 190.048 11.7783C190.048 12.1945 190.479 12.4719 191.147 12.8881L194.731 15.0151C197.025 16.3559 197.36 17.697 197.36 19.0378C197.455 21.396 195.688 23.1994 192.056 23.1994Z" fill="#1D77BD"/>
    <path d="M191.531 21.0272C191.385 21.1691 191.628 20.8855 191.531 21.0272V21.0272Z" fill="#18181F"/>
    <path fill-rule="evenodd" clip-rule="evenodd" d="M48.4081 20.9803C49.2205 20.6566 50.0328 20.3791 50.893 20.0555C48.1213 25.4192 39.6154 27.7774 33.0207 24.4945C30.0579 23.0148 27.3818 20.6103 24.9448 18.2059C22.5077 15.8477 20.5006 13.0271 18.3024 10.3915C12.7591 3.77929 8.17155 2.29963 0 4.51912C1.48139 1.37485 6.40344 -0.520956 11.1343 0.126393C16.7732 0.866219 20.5961 4.33416 24.1801 8.21824C27.9075 12.2873 31.4915 16.5413 35.6489 20.148C39.7587 23.7084 44.7762 23.6159 48.5515 20.8878L48.4081 20.9803Z" fill="#18181F"/>
    <path d="M33.4036 16.5881C35.5061 14.6923 37.2265 13.0276 39.0902 11.4555C44.4424 6.92404 49.3644 7.61763 53.2828 13.7674C52.136 4.61207 44.7291 1.19038 37.322 5.99926C35.0283 7.52514 32.9735 9.42095 30.7275 11.2243C29.3894 10.3457 28.0514 9.42095 26.7134 8.54241C26.6178 8.68113 26.4745 8.86608 26.3788 9.0048C26.7134 9.42095 27.0957 9.79087 27.4302 10.207C29.3417 12.334 31.301 14.5072 33.4036 16.5881Z" fill="#1D77BD"/>
    <path d="M22.843 17.5581C15.436 23.9392 9.74939 14.3677 9.74939 14.3677C12.6166 26.4361 20.2625 25.2801 25.4713 22.6907C26.857 23.3381 28.8641 24.0317 30.1544 24.6327C30.2499 24.4941 30.3933 24.3554 30.4889 24.2166C28.1951 22.737 26.0925 20.795 24.1811 18.9454C23.7031 18.483 23.2731 18.0206 22.843 17.5581Z" fill="#1D77BD"/>
</svg>
